PathFileType	4	(X/Y/Z)	outputs\static_markers.trc
DataRate	CameraRate	NumFrames	NumMarkers	Units	OrigDataRate	OrigDataStartFrame	OrigNumFrames
360.000000	360.000000	4	48	m	360.000000	0	11
Frame#	Time	C7			CLAV			LANK			LASI			LBAK			LBHD			LELB			LFHD			LFIN			LFRM			LHEE			LIC			LKNE			LMANK			LMELB			LMKNE			LPSI			LSHO			LTHI			LTIB			LTOE			LUPA			LWRA			LWRB			RANK			RASI			RBAK			RBHD			RELB			RFHD			RFIN			RFRM			RHEE			RIC			RKNE			RMANK			RMELB			RMKNE			RPSI			RSHO			RTHI			RTIB			RTOE			RUPA			RWRA			RWRB			STRN			T10			
		X1	Y1	Z1	X2	Y2	Z2	X3	Y3	Z3	X4	Y4	Z4	X5	Y5	Z5	X6	Y6	Z6	X7	Y7	Z7	X8	Y8	Z8	X9	Y9	Z9	X10	Y10	Z10	X11	Y11	Z11	X12	Y12	Z12	X13	Y13	Z13	X14	Y14	Z14	X15	Y15	Z15	X16	Y16	Z16	X17	Y17	Z17	X18	Y18	Z18	X19	Y19	Z19	X20	Y20	Z20	X21	Y21	Z21	X22	Y22	Z22	X23	Y23	Z23	X24	Y24	Z24	X25	Y25	Z25	X26	Y26	Z26	X27	Y27	Z27	X28	Y28	Z28	X29	Y29	Z29	X30	Y30	Z30	X31	Y31	Z31	X32	Y32	Z32	X33	Y33	Z33	X34	Y34	Z34	X35	Y35	Z35	X36	Y36	Z36	X37	Y37	Z37	X38	Y38	Z38	X39	Y39	Z39	X40	Y40	Z40	X41	Y41	Z41	X42	Y42	Z42	X43	Y43	Z43	X44	Y44	Z44	X45	Y45	Z45	X46	Y46	Z46	X47	Y47	Z47	X48	Y48	Z48	

1	0	-0.04308158531785011	1.69701874256134	0.2703453600406647	0.1223605200648308	1.66203784942627	0.268975704908371	0.02067594043910503	0.08557829260826111	0.05482440441846848	0.1569761782884598	1.164651036262512	0.1157864555716515	-0.08147436380386353	1.474285483360291	0.1714437454938889	0.03028160892426968	1.895310878753662	0.2015503495931625	-0.04794697090983391	1.628905177116394	-0.2282788902521133	0.1713358908891678	1.904412865638733	0.1827506572008133	0.004454071167856455	1.732139825820923	-0.6062842011451721	-0.02684441395103931	1.686836957931519	-0.3712083101272583	-0.05239200592041016	0.09902562201023102	0.1161307618021965	0.06926966458559036	1.23462176322937	0.06924532353878021	0.0552210621535778	0.603851854801178	0.07192444056272507	0.04513530060648918	0.08751212805509567	0.1683698296546936	0.008302980102598667	1.572052836418152	-0.2279085367918015	0.05217254161834717	0.572523832321167	0.2003611475229263	-0.04595240205526352	1.1935054063797	0.1962083727121353	-0.02663981728255749	1.714859008789062	0.1134508550167084	0.05195726081728935	0.7053974270820618	0.05749880522489548	0.0126253878697753	0.4927617609500885	0.0475604236125946	0.199965238571167	0.07054010033607483	0.1239467263221741	-0.04358566552400589	1.683674097061157	-0.05961323529481888	0.04312645643949509	1.672649621963501	-0.5155037641525269	-0.04187239333987236	1.647414445877075	-0.5215001702308655	-0.02684388309717178	0.08708176016807556	0.4435467123985291	0.1433634757995605	1.16837203502655	0.4064456522464752	-0.08348279446363449	1.47401750087738	0.361103355884552	0.04584074392914772	1.895699381828308	0.3496281504631042	5.677344233845361e-05	1.625057697296143	0.7637940049171448	0.1883827298879623	1.900327086448669	0.3395881652832031	0.09671664237976074	1.745579838752747	1.102062106132507	0.03156246989965439	1.706016302108765	0.8911519050598145	-0.06812223792076111	0.09598010778427124	0.3731449544429779	0.05263054370880127	1.224489092826843	0.4383115172386169	0.04520710185170174	0.6011056900024414	0.4514467716217041	0.01082091685384512	0.0849226787686348	0.3433859944343567	0.06714656949043274	1.58037281036377	0.76230388879776	0.0698789656162262	0.592354416847229	0.3221464455127716	-0.04368977621197701	1.20103394985199	0.304106205701828	-0.009939211420714855	1.711436867713928	0.4238547384738922	0.03798893839120865	0.7835640907287598	0.4738256633281708	-0.03361549228429794	0.4710727334022522	0.4640728831291199	0.1985845118761063	0.06448306143283844	0.4358240962028503	-0.01572441309690475	1.680556893348694	0.5922189354896545	0.1168469041585922	1.724698662757874	1.026082158088684	0.03306151553988457	1.69659149646759	1.036627888679504	0.1822191923856735	1.466164827346802	0.2571564018726349	-0.04907664656639099	1.316572070121765	0.249126210808754	
2	0.002777777777777778	-0.04305858910083771	1.697019100189209	0.2703855037689209	0.122397854924202	1.662023782730103	0.2689959704875946	0.02067641168832779	0.08556897193193436	0.05478840321302414	0.1569817364215851	1.164650797843933	0.1157807856798172	-0.08146995306015015	1.474292278289795	0.1714774072170258	0.03015095740556717	1.895379066467285	0.2018060982227325	-0.04793679714202881	1.62889289855957	-0.2282444834709167	0.1711062639951706	1.904507637023926	0.1825708448886871	0.00448497012257576	1.732109069824219	-0.6062337160110474	-0.02677811309695244	1.686803579330444	-0.3711323738098145	-0.05239079892635345	0.09902849793434143	0.1161387115716934	0.06926581263542175	1.234616041183472	0.06925665587186813	0.05523848533630371	0.6038554906845093	0.07193014770746231	0.04512733966112137	0.08750921487808228	0.1683792471885681	0.008316492661833763	1.572031259536743	-0.2278618514537811	0.05217008292675018	0.5725353360176086	0.2003596425056458	-0.04595103487372398	1.193511247634888	0.1962155401706696	-0.02662363834679127	1.714854717254639	0.1134870201349258	0.05198544263839722	0.7053968906402588	0.0575028583407402	0.01263134367763996	0.4927694797515869	0.04755737259984016	0.1999583691358566	0.07053883373737335	0.1239517033100128	-0.04356808215379715	1.683683395385742	-0.05958499014377594	0.04314986616373062	1.672611713409424	-0.5154634714126587	-0.04185769706964493	1.64738917350769	-0.5214692354202271	-0.02682305872440338	0.0870773047208786	0.4435524046421051	0.1433627754449844	1.168353199958801	0.40645831823349	-0.08349220454692841	1.474023103713989	0.3611189723014832	0.04641075432300568	1.895512700080872	0.3499274253845215	7.268381887115538e-05	1.625013828277588	0.7638205289840698	0.1887415200471878	1.900212287902832	0.3392446935176849	0.09673289954662323	1.745537638664246	1.10208785533905	0.03158122673630714	1.705960273742676	0.8912017345428467	-0.06813165545463562	0.09598389267921448	0.3731468617916107	0.05261969193816185	1.224475860595703	0.4383137822151184	0.04521601274609566	0.6010987758636475	0.4514482915401459	0.01080591231584549	0.08492185920476913	0.3434014022350311	0.06716165691614151	1.580322027206421	0.7623461484909058	0.06987433135509491	0.5923545956611633	0.3221238255500793	-0.04372605308890343	1.201043248176575	0.3041094541549683	-0.009923610836267471	1.71141505241394	0.4238913655281067	0.03798893839120865	0.7835620045661926	0.4738278388977051	-0.03360899537801743	0.4710659384727478	0.4640769362449646	0.198585033416748	0.06448626518249512	0.4358341097831726	-0.01568489149212837	1.680532574653625	0.5922491550445557	0.1168638616800308	1.724637746810913	1.026110291481018	0.03315633907914162	1.696513175964355	1.036702632904053	0.1822884380817413	1.466139793395996	0.2571286857128143	-0.04908352345228195	1.316577076911926	0.2491358816623688	
3	0.005555555555555556	-0.04301659390330315	1.697029232978821	0.2704471349716187	0.1224076226353645	1.66199517250061	0.2690200507640839	0.02068657055497169	0.08557445555925369	0.05480416491627693	0.1569945961236954	1.164648056030273	0.1157950907945633	-0.08144517987966537	1.474307537078857	0.1715260744094849	0.0299461055546999	1.895449638366699	0.2022456228733063	-0.04790668934583664	1.628886938095093	-0.2281906753778458	0.1707323491573334	1.904667615890503	0.1823236346244812	0.004527577664703131	1.732056021690369	-0.606174111366272	-0.02679655700922012	1.686770439147949	-0.3710994720458984	-0.05236665531992912	0.09902489930391312	0.1161351054906845	0.06926164776086807	1.234617114067078	0.06925790756940842	0.05526014044880867	0.6038556694984436	0.07193228602409363	0.04512392729520798	0.08750434964895248	0.1683704406023026	0.008331946097314358	1.572010040283203	-0.227802187204361	0.05219240486621857	0.5725334882736206	0.2003599554300308	-0.04592790454626083	1.193511247634888	0.1962232738733292	-0.02659029327332973	1.714859127998352	0.1135472506284714	0.05200932919979095	0.7054059505462646	0.05750855058431625	0.01265757437795401	0.4927749335765839	0.04755630344152451	0.1999658644199371	0.07053528726100922	0.1239427328109741	-0.04354178905487061	1.683699131011963	-0.05952266976237297	0.0431862585246563	1.672550678253174	-0.5154286026954651	-0.04183979332447052	1.647361040115356	-0.5214166641235352	-0.02683072909712791	0.08708250522613525	0.4435596168041229	0.1433746218681335	1.168341636657715	0.4064802825450897	-0.08348998427391052	1.474020838737488	0.3611737191677094	0.04729464650154114	1.895344495773315	0.3502885401248932	6.905006011947989e-05	1.624953627586365	0.7638671398162842	0.1892406344413757	1.900044441223145	0.3388301730155945	0.09675884991884232	1.745470881462097	1.102130532264709	0.03159969672560692	1.705883622169495	0.8912530541419983	-0.0681350901722908	0.09598183631896973	0.3731537461280823	0.05263349041342735	1.2244553565979	0.4383194148540497	0.0451999232172966	0.6011067628860474	0.4514535963535309	0.01080868579447269	0.08491388708353043	0.3434113562107086	0.0671951025724411	1.580247521400452	0.7623870968818665	0.06987733393907547	0.5923693776130676	0.3221092224121094	-0.04372252896428108	1.201038002967834	0.3041130900382996	-0.0098350765183568	1.7114417552948	0.4239211082458496	0.03799501433968544	0.7835524082183838	0.4738255143165588	-0.03361383825540543	0.4710677564144135	0.4640814363956451	0.1985873430967331	0.06449542194604874	0.4358391463756561	-0.0156584195792675	1.680494546890259	0.5923029184341431	0.1168994009494781	1.724547863006592	1.026153564453125	0.03321148082613945	1.696420311927795	1.036777019500732	0.1822888553142548	1.46610414981842	0.2571751177310944	-0.04906484857201576	1.316576242446899	0.2491489946842194	
4	0.008333333333333333	-0.04297003522515297	1.697028994560242	0.2705210745334625	0.12244613468647	1.661970615386963	0.2690615952014923	0.02070524543523788	0.08558519929647446	0.05479560792446136	0.1570233702659607	1.164658665657043	0.1157928481698036	-0.08145711570978165	1.474329829216003	0.1715647429227829	0.02971041016280651	1.895559310913086	0.2027471959590912	-0.04790011793375015	1.628870964050293	-0.2281364500522614	0.1703580170869827	1.904821395874023	0.1820716857910156	0.004563360009342432	1.732007622718811	-0.6061128377914429	-0.02671725302934647	1.686732530593872	-0.371006041765213	-0.05235689505934715	0.09901197254657745	0.1161413341760635	0.06925893574953079	1.234626650810242	0.06927447766065598	0.05525528639554977	0.6038724184036255	0.07192511111497879	0.04514368623495102	0.08749669790267944	0.1683602184057236	0.008348549716174603	1.571974992752075	-0.2277310490608215	0.0522049181163311	0.5725444555282593	0.2003694772720337	-0.0459137074649334	1.193503260612488	0.1962261348962784	-0.02656010538339615	1.714868664741516	0.1136084794998169	0.05203533172607422	0.7054043412208557	0.05751077458262444	0.01267839130014181	0.4927735924720764	0.04755948483943939	0.1999768167734146	0.07053598761558533	0.1239458173513412	-0.04351551085710526	1.683704972267151	-0.05946950986981392	0.04320806264877319	1.672499537467957	-0.5153713822364807	-0.04183513298630714	1.647324681282043	-0.5213595628738403	-0.02684051170945168	0.08708224445581436	0.4435437619686127	0.1433803290128708	1.168342471122742	0.4064941704273224	-0.08347906172275543	1.474012136459351	0.3612072467803955	0.04781081527471542	1.895184755325317	0.3507953882217407	9.251349547412246e-05	1.624882459640503	0.7639169692993164	0.1896886974573135	1.899882912635803	0.3385153412818909	0.09678461402654648	1.745397925376892	1.102181196212769	0.03162320330739021	1.705804109573364	0.8913108110427856	-0.06812933087348938	0.09597848355770111	0.3731542229652405	0.05264297872781754	1.224446296691895	0.4383377730846405	0.04520313069224358	0.6011077761650085	0.4514417350292206	0.01081183832138777	0.08491943031549454	0.3434114754199982	0.06721209734678268	1.580185890197754	0.7624330520629883	0.06989195942878723	0.5923702716827393	0.3221257627010345	-0.04359116777777672	1.200985193252563	0.3040664792060852	-0.009732365608215332	1.711398243904114	0.4240078032016754	0.0379883237183094	0.7835543751716614	0.4738249480724335	-0.033617053180933	0.4710732698440552	0.4640811681747437	0.1985966265201569	0.06449837237596512	0.4358290135860443	-0.01563252508640289	1.680454134941101	0.5923641324043274	0.1169048324227333	1.724456429481506	1.026190519332886	0.03323717787861824	1.696347117424011	1.036826610565186	0.18229740858078	1.46606981754303	0.2572006583213806	-0.04904713109135628	1.316575884819031	0.249170646071434	
